# xmcd
#
# Track frame offsets:
#	150
#	23887
#	45406
#	63842
#	85115
#	102932
#	123683
#	142350
#	159827
#	185698
#
# Disc length: 2716 seconds
#
# Revision: 1
# Processed by: cddbd v1.5.2PL0 Copyright (c) Steve Scherf et al.
# Submitted via: EZCDAudioConverter 8.0.2.1
#
DISCID=840a9a0a
DTITLE=Various Artist - Just for you 3. Ma Nữ Đa Tình
DYEAR=1998
DGENRE=Miscellaneous
TTITLE0=V.A - Cùng cơn mưa
TTITLE1=V.A - Lời yêu thương
TTITLE2=Ngọc Anh - Nuối tiếc tình anh
TTITLE3=Ngọc Anh, Thúy Vi - Triệu đóa hồng
TTITLE4=Giáng ngọc - Cô bé u sầu
TTITLE5=Ngọc Hân - Mưa chiều rơi
TTITLE6=Thúy Vi - Người tình mùa đông
TTITLE7=Ngọc Anh - Đa tình
TTITLE8=Thúy Vi - Phố mưa
TTITLE9=Ngọc Anh - Tình yêu vỗ cánh
EXTD=
EXTT0=
EXTT1=
EXTT2=
EXTT3=
EXTT4=
EXTT5=
EXTT6=
EXTT7=
EXTT8=
EXTT9=
PLAYORDER=
